HIERARCHY
ROOT Hips
{
 OFFSET 0.000000 0.000000 0.000000
 CHANNELS 6 Xposition Yposition Zposition Yrotation Xrotation Zrotation
 JOINT Chest
 {
  OFFSET 0.000000 9.585900 0.002600
  CHANNELS 3 Yrotation Xrotation Zrotation
  JOINT Chest2
  {
   OFFSET 0.000000 9.601200 -0.005300
   CHANNELS 3 Yrotation Xrotation Zrotation
   JOINT Chest3
   {
    OFFSET 0.000000 9.561800 0.000000
    CHANNELS 3 Yrotation Xrotation Zrotation
    JOINT Chest4
    {
     OFFSET 0.000000 9.552100 0.000000
     CHANNELS 3 Yrotation Xrotation Zrotation
     JOINT Neck
     {
      OFFSET 0.000000 14.453000 0.000000
      CHANNELS 3 Yrotation Xrotation Zrotation
      JOINT Head
      {
       OFFSET 0.000000 8.936500 -0.011300
       CHANNELS 3 Yrotation Xrotation Zrotation
       End Site
       {
        OFFSET 0.000000 17.073600 -0.006000
       }
      }
     }
     JOINT RightCollar
     {
      OFFSET -2.921100 9.558500 0.000000
      CHANNELS 3 Yrotation Xrotation Zrotation
      JOINT RightShoulder
      {
       OFFSET -13.519700 0.000000 0.000000
       CHANNELS 3 Yrotation Xrotation Zrotation
       JOINT RightElbow
       {
        OFFSET 0.000000 -29.696600 0.000000
        CHANNELS 3 Yrotation Xrotation Zrotation
        JOINT RightWrist
        {
         OFFSET 0.000000 -24.004700 0.000000
         CHANNELS 3 Yrotation Xrotation Zrotation
         End Site
         {
          OFFSET 0.000000 -17.728500 0.000000
         }
        }
       }
      }
     }
     JOINT LeftCollar
     {
      OFFSET 2.921100 9.558500 0.000000
      CHANNELS 3 Yrotation Xrotation Zrotation
      JOINT LeftShoulder
      {
       OFFSET 13.519700 0.000000 0.000000
       CHANNELS 3 Yrotation Xrotation Zrotation
       JOINT LeftElbow
       {
        OFFSET 0.000000 -29.696600 0.000000
        CHANNELS 3 Yrotation Xrotation Zrotation
        JOINT LeftWrist
        {
         OFFSET 0.000000 -24.004700 0.000000
         CHANNELS 3 Yrotation Xrotation Zrotation
         End Site
         {
          OFFSET 0.000000 -17.728500 0.000000
         }
        }
       }
      }
     }
    }
   }
  }
 }
 JOINT RightHip
 {
  OFFSET -7.771700 -0.012900 -0.001300
  CHANNELS 3 Yrotation Xrotation Zrotation
  JOINT RightKnee
  {
   OFFSET 0.000000 -40.869800 0.001200
   CHANNELS 3 Yrotation Xrotation Zrotation
   JOINT RightAnkle
   {
    OFFSET 0.000000 -39.717900 0.002100
    CHANNELS 3 Yrotation Xrotation Zrotation
    JOINT RightToe
    {
     OFFSET 0.000000 -4.965400 11.033500
     CHANNELS 3 Yrotation Xrotation Zrotation
     End Site
     {
      OFFSET 0.000000 -1.423100 5.872300
     }
    }
   }
  }
 }
 JOINT LeftHip
 {
  OFFSET 7.771700 -0.012900 -0.001300
  CHANNELS 3 Yrotation Xrotation Zrotation
  JOINT LeftKnee
  {
   OFFSET 0.000000 -40.869800 0.001200
   CHANNELS 3 Yrotation Xrotation Zrotation
   JOINT LeftAnkle
   {
    OFFSET 0.000000 -39.717900 0.002100
    CHANNELS 3 Yrotation Xrotation Zrotation
    JOINT LeftToe
    {
     OFFSET 0.000000 -4.965400 11.033500
     CHANNELS 3 Yrotation Xrotation Zrotation
     End Site
     {
      OFFSET 0.000000 -1.423100 5.872300
     }
    }
   }
  }
 }
}
MOTION
Frames: 5
Frame Time: 0.008333
-33.042582 52.115070 41.181564 178.593054 -33.157051 -10.698391 -0.034451 13.348036 5.280324 -0.000030 7.730169 2.200243 -0.012074 9.565232 2.744386 0.003192 7.719204 2.179941 6.088561 19.196858 -2.719733 7.258831 -5.112074 -4.349347 0.973860 1.610362 -1.749640 -15.728425 -7.291287 5.686014 50.387683 -69.376228 -33.052605 11.718128 -4.041756 -20.954483 -8.825354 4.338114 -3.459475 6.448095 -3.432587 -3.057974 -67.213582 -70.580049 74.216060 10.883866 -16.560224 0.841567 -14.938813 -32.789352 5.014041 42.257242 83.546645 37.716144 -0.407687 -16.648623 3.134825 -0.516765 1.181526 -0.281074 -15.576727 -45.714833 16.715677 168.099784 78.161841 163.676775 -1.282290 -17.094032 0.224666 -0.556369 -1.340604 -0.254657
-32.983452 52.367472 41.186513 178.721247 -33.048794 -10.879892 -0.075648 13.354583 5.431710 -0.020049 7.676695 2.182587 -0.012308 9.556221 2.740383 0.000489 7.705983 2.175145 6.078785 19.179052 -2.696949 7.276514 -5.087824 -4.277196 0.971768 1.602300 -1.765044 -15.745264 -7.264874 5.735553 50.181957 -69.373153 -32.875875 11.765376 -4.079695 -20.957173 -8.810923 4.343696 -3.448703 6.505775 -3.381820 -3.072093 -67.266927 -70.634852 74.247658 10.897746 -16.567699 0.871067 -15.292292 -32.846962 5.259606 42.694273 83.591060 38.101906 -0.429701 -16.803860 3.068175 -0.498973 1.292088 -0.274331 -15.791704 -45.644625 16.929984 168.068384 78.348409 163.623094 -1.138033 -16.755761 0.267632 -0.694728 -1.623628 -0.323004
-32.916887 52.607826 41.185454 178.788801 -33.000189 -11.049193 -0.081974 13.353251 5.583317 -0.008683 7.685970 2.179428 0.024178 9.592319 2.726484 -0.026480 7.662433 2.181121 6.084181 19.168397 -2.646078 7.259656 -5.103668 -4.264537 0.961359 1.572478 -1.771893 -15.740079 -7.157920 5.816748 50.274421 -69.401789 -33.024866 11.792534 -4.103675 -20.956535 -8.791786 4.356383 -3.450328 6.527463 -3.357695 -3.056505 -67.298011 -70.679665 74.271397 10.900864 -16.602236 0.906991 -15.520489 -32.832797 5.485260 42.917895 83.609779 38.324775 -0.422152 -16.892772 3.006022 -0.516388 1.343329 -0.279690 -15.952787 -45.526018 17.135508 168.062137 78.516341 163.628179 -0.975869 -16.432669 0.263012 -0.837501 -1.906645 -0.376291
-32.854790 52.824733 41.184112 178.843918 -32.952690 -11.169263 -0.105496 13.327780 5.681472 0.001349 7.697264 2.179300 0.044515 9.618736 2.719212 -0.015180 7.673925 2.170245 6.111029 19.188940 -2.569959 7.214446 -5.168082 -4.270739 0.941542 1.524506 -1.772209 -15.747338 -7.082901 5.887681 50.339358 -69.416787 -33.129606 11.775020 -4.114341 -20.957060 -8.813837 4.327750 -3.439315 6.563366 -3.314723 -3.035958 -67.302108 -70.715012 74.284740 10.898824 -16.656321 0.900790 -15.679389 -32.822495 5.652097 43.014536 83.617252 38.440641 -0.430169 -16.932667 2.944502 -0.518712 1.349183 -0.272520 -16.070234 -45.416723 17.336312 168.188627 78.687715 163.726623 -0.912598 -16.169151 0.298090 -0.920114 -2.129900 -0.409407
-32.800223 53.013789 41.186210 178.890593 -32.877373 -11.233857 -0.081379 13.344850 5.759483 -0.040196 7.631774 2.160101 0.062584 9.652026 2.713019 -0.028495 7.643055 2.172288 6.110953 19.179948 -2.549105 7.221463 -5.160370 -4.210642 0.943913 1.509348 -1.789778 -15.765116 -7.053957 5.935391 50.316851 -69.407281 -33.125341 11.753413 -4.149138 -20.954640 -8.810166 4.334574 -3.455320 6.579514 -3.276768 -3.003274 -67.270712 -70.745610 74.273978 10.901915 -16.678246 0.991379 -15.786881 -32.857951 5.757043 43.095895 83.624050 38.555054 -0.440964 -16.949871 2.890156 -0.517849 1.335704 -0.266719 -16.135845 -45.386895 17.440785 168.179840 78.823171 163.713279 -0.818647 -15.904605 0.327173 -1.021071 -2.350787 -0.453116
